<?xml version="1.0" standalone="no"?>
<!DOCTYPE svg PUBLIC "-//W3C//DTD SVG 20010904//EN"
 "http://www.w3.org/TR/2001/REC-SVG-20010904/DTD/svg10.dtd">
<svg version="1.0" xmlns="http://www.w3.org/2000/svg"
 width="603.000000pt" height="603.000000pt" viewBox="0 0 603.000000 603.000000"
 preserveAspectRatio="xMidYMid meet">
<metadata>
Created by potrace 1.11, written by Peter Selinger 2001-2013
</metadata>
<g transform="translate(0.000000,603.000000) scale(0.100000,-0.100000)"
fill="#000000" stroke="none">
<path d="M0 5280 l0 -750 23 -5 c84 -19 105 -24 132 -34 17 -5 104 -29 195
-51 397 -100 543 -140 566 -155 35 -22 70 -81 88 -145 15 -57 21 -182 31 -630
3 -140 8 -275 10 -300 3 -25 0 -126 -6 -225 -14 -208 -14 -219 -4 -301 13
-106 -53 -333 -97 -334 -10 0 -35 -6 -55 -14 -21 -8 -69 -22 -107 -33 -54 -14
-78 -27 -112 -60 -24 -24 -47 -43 -53 -43 -11 0 -12 -8 -15 -118 -1 -67 -5
-86 -19 -96 -20 -15 -22 -32 -4 -39 10 -4 9 -6 0 -6 -7 -1 -13 -8 -13 -16 0
-8 -6 -15 -13 -15 -8 0 -19 -17 -25 -37 -13 -44 -86 -96 -140 -101 -18 -1 -61
-6 -95 -11 -36 -5 -69 -5 -79 0 -27 15 -105 11 -122 -6 -8 -8 -17 -15 -21 -15
-3 0 -19 -10 -35 -22 -27 -19 -30 -28 -30 -75 0 -46 3 -53 20 -53 11 0 20 -4
20 -10 0 -5 -9 -10 -20 -10 -11 0 -20 -4 -20 -10 0 -5 18 -10 40 -10 l40 0 0
-46 0 -47 -40 7 -40 6 0 -735 0 -735 69 0 c49 0 72 4 81 15 16 19 51 19 76 0
13 -10 47 -14 116 -15 112 0 102 -6 191 111 55 74 126 145 237 239 30 25 80
70 112 101 32 31 82 66 111 79 159 72 206 96 249 127 26 19 80 49 120 66 74
33 148 78 363 222 66 44 133 86 148 94 15 8 46 30 67 49 l40 34 0 84 c0 77 -9
104 -24 72 -4 -7 -4 -3 -2 9 3 16 -1 23 -11 23 -8 0 -13 6 -10 13 2 7 18 11
39 9 32 -2 37 1 49 30 7 18 19 37 26 41 24 15 14 30 -14 22 l-28 -7 27 25 c15
14 25 27 22 30 -3 2 2 7 11 10 10 4 15 1 15 -10 0 -15 2 -14 19 3 11 10 40 39
64 63 39 38 47 51 56 105 6 35 11 165 11 290 0 276 -16 406 -52 406 -6 0 -41
28 -77 63 -37 34 -80 69 -96 77 -47 23 -67 41 -133 115 -77 86 -82 119 -26
176 l36 37 -7 76 -7 77 -38 15 c-41 17 -71 62 -63 95 3 11 24 41 48 67 46 52
72 119 81 210 6 53 9 59 38 72 38 17 91 16 112 -1 8 -7 14 -24 12 -38 -4 -34
-44 -42 -65 -12 -17 26 -48 27 -59 4 -19 -45 -39 -181 -32 -227 12 -82 26 -77
66 24 5 14 14 37 21 53 13 34 34 35 49 2 18 -40 14 -69 -14 -111 -34 -50 -59
-128 -38 -120 8 3 14 1 14 -3 0 -5 -7 -12 -15 -15 -20 -7 -5 -40 26 -57 18 -9
25 -7 42 9 27 28 39 102 41 264 1 114 4 140 19 156 9 10 17 25 17 33 1 23 23
45 52 52 25 7 28 4 33 -30 18 -108 28 -144 47 -169 20 -25 148 -94 175 -94 15
0 17 -12 3 -26 -16 -16 0 -56 21 -51 10 3 20 -2 23 -10 8 -20 8 -23 -4 -23 -5
0 -20 -10 -33 -22 -38 -36 -70 -58 -83 -58 -7 0 -14 -5 -16 -11 -2 -5 -12 -11
-22 -13 -11 -1 -34 -20 -52 -41 -26 -32 -30 -43 -24 -66 11 -38 11 -309 1
-309 -10 0 -22 -69 -22 -124 1 -35 11 -63 59 -163 8 -18 19 -33 24 -33 4 0 8
-5 8 -11 0 -6 7 -17 15 -25 8 -9 18 -27 21 -42 4 -15 14 -36 24 -47 21 -25 80
-148 80 -167 0 -7 -9 -21 -20 -31 -21 -18 -25 -43 -11 -65 4 -7 5 -31 1 -53
-4 -21 -5 -39 -1 -39 3 0 12 -13 19 -29 13 -29 9 -88 -8 -121 -5 -10 1 -26 16
-45 27 -34 31 -70 9 -79 -21 -8 -19 -46 3 -47 14 0 14 -2 -3 -8 -26 -10 -28
-69 -3 -77 23 -7 23 -30 1 -39 -17 -6 -17 -7 0 -19 13 -11 17 -28 17 -85 l0
-71 -40 0 c-22 0 -40 -4 -40 -10 0 -5 -7 -10 -15 -10 -8 0 -15 -4 -15 -10 0
-14 -46 -12 -57 3 -10 12 -41 71 -62 117 -21 47 -30 128 -24 217 3 48 2 85 -2
80 -33 -30 -47 -198 -25 -315 25 -138 62 -228 148 -355 37 -54 72 -106 77
-115 6 -9 20 -24 32 -35 54 -44 78 -104 74 -187 -3 -97 -2 -203 4 -221 11 -34
-15 -19 -37 21 -10 19 -18 47 -18 62 0 16 -5 28 -11 28 -5 0 -8 4 -4 10 3 5 3
21 -1 35 -5 22 -8 24 -18 10 -7 -9 -18 -13 -28 -10 -17 7 -32 71 -20 89 4 6 7
16 7 21 0 6 10 11 23 13 13 2 22 10 22 20 0 24 -16 46 -28 38 -5 -3 -13 6 -17
21 -4 16 -2 29 5 33 9 5 9 9 1 14 -6 4 -11 18 -11 32 0 22 -4 24 -44 24 -111
0 -196 -73 -196 -170 0 -81 62 -162 157 -204 51 -23 61 -33 81 -76 18 -39 21
-59 16 -103 -6 -48 -4 -56 16 -75 27 -25 73 -24 78 1 2 9 -4 31 -12 49 -20 39
-20 39 3 30 10 -4 34 -25 52 -47 19 -23 53 -58 76 -78 39 -35 45 -38 95 -35
l53 3 -65 36 c-78 43 -161 139 -141 163 7 9 8 17 2 20 -5 3 -11 2 -13 -4 -1
-5 -4 11 -5 37 l-2 46 47 -50 c26 -27 63 -56 82 -64 43 -17 87 -46 123 -82 33
-34 70 -34 75 1 5 32 -26 65 -55 59 -15 -3 -23 1 -23 9 0 9 11 14 30 14 17 0
30 2 30 4 0 21 -23 56 -39 61 -12 3 -21 15 -21 25 0 11 -13 29 -29 41 -16 12
-27 27 -25 34 3 6 -2 18 -11 25 -13 11 -15 9 -15 -9 0 -12 -6 -21 -15 -21 -15
0 -19 10 -16 41 1 8 -5 29 -14 45 -20 39 -19 81 3 93 19 10 69 4 78 -10 3 -5
14 -9 25 -9 13 0 19 -7 19 -23 0 -28 45 -52 128 -67 62 -11 86 -23 106 -51 14
-21 75 -48 111 -49 25 -1 55 -23 55 -41 0 -8 6 -3 13 11 7 14 9 27 5 28 -4 2
-8 10 -8 18 0 8 -7 11 -17 8 -11 -4 -14 -3 -7 3 11 8 34 82 37 118 4 40 65
151 108 196 28 30 71 59 119 82 41 19 88 45 105 58 39 31 205 194 205 202 0 3
11 18 25 33 14 15 28 37 31 49 3 13 16 27 28 33 17 7 23 19 24 42 1 38 16 80
49 132 13 21 23 50 23 66 0 15 5 33 12 40 8 8 11 43 10 103 -2 72 -7 100 -23
129 -22 40 -82 80 -118 80 -13 0 -21 7 -22 18 0 9 -2 37 -5 60 -4 30 -2 42 5
37 6 -3 11 -19 11 -36 0 -26 7 -32 68 -61 37 -17 77 -42 89 -55 27 -28 58 -29
98 -4 38 23 115 98 115 111 0 5 4 10 9 10 5 0 33 23 62 50 29 28 57 50 61 50
4 0 8 6 8 14 0 7 9 16 20 19 11 3 22 17 26 33 4 16 13 36 21 45 12 14 12 17
-2 23 -9 3 -25 6 -36 6 -11 0 -22 7 -25 15 -4 8 -22 23 -41 32 -20 9 -38 25
-41 35 -5 20 -42 24 -59 7 -9 -9 -18 -8 -37 5 -15 9 -26 20 -26 25 0 12 21 28
45 34 11 3 -5 5 -35 5 -75 0 -82 3 -35 12 41 8 173 -5 210 -21 11 -4 38 -8 60
-8 22 1 97 -1 168 -4 106 -5 127 -4 127 9 0 8 5 14 10 14 7 0 7 6 0 18 -6 9
-19 30 -28 46 -35 58 -127 67 -290 30 -35 -8 -74 -14 -88 -14 -13 0 -24 -4
-24 -10 0 -5 -9 -10 -20 -10 -12 0 -20 -7 -20 -16 0 -13 -7 -14 -42 -8 -24 4
-89 7 -145 5 -60 -1 -110 2 -122 9 -28 14 -27 48 4 106 14 26 25 53 25 60 0 8
5 14 10 14 6 0 10 9 10 20 0 20 24 28 34 11 8 -13 81 -24 106 -16 11 4 30 25
42 48 11 23 34 58 51 76 36 42 62 100 72 159 4 24 13 56 21 70 16 32 20 315 5
355 -6 14 -28 35 -50 48 -23 12 -41 28 -41 34 0 35 34 118 58 140 29 27 49 30
96 16 84 -26 216 -62 261 -71 49 -10 96 -23 225 -62 36 -10 94 -28 130 -38 36
-11 90 -26 120 -34 131 -35 521 -149 587 -173 74 -26 95 -42 136 -103 27 -41
52 -47 114 -26 26 9 64 16 85 16 l38 0 0 444 0 444 -102 42 c-57 23 -114 48
-128 56 -39 21 -180 74 -197 74 -8 0 -27 7 -41 14 -15 8 -45 22 -67 31 -22 9
-56 24 -75 34 -19 10 -48 21 -65 25 -33 8 -147 57 -155 66 -3 4 -27 13 -55 20
-27 8 -67 24 -90 36 -22 12 -58 25 -79 29 -42 7 -136 45 -252 101 -39 19 -77
34 -85 34 -8 0 -26 6 -41 14 -14 8 -43 19 -65 26 -21 7 -65 25 -98 40 -33 15
-78 33 -100 40 -22 7 -47 18 -55 25 -8 7 -40 25 -70 40 -30 15 -73 40 -95 55
-22 15 -53 30 -70 34 -76 16 -91 16 -113 -4 -27 -25 -33 -25 -55 1 -18 20 -19
20 -38 3 -17 -15 -24 -16 -40 -6 -17 11 -21 9 -31 -13 -7 -16 -19 -25 -34 -25
-26 0 -42 -18 -22 -24 23 -7 73 -15 61 -10 -26 11 -12 24 27 24 22 0 40 -4 40
-10 0 -5 -7 -10 -16 -10 -8 0 -12 -4 -9 -10 3 -5 16 -10 28 -10 12 0 29 -5 37
-11 12 -8 9 -10 -12 -6 -33 5 -34 3 -8 -25 11 -12 20 -30 20 -40 0 -23 -18
-15 -79 37 -24 19 -44 35 -46 35 -13 0 14 -46 42 -71 33 -28 35 -33 23 -55
-16 -29 -30 -31 -30 -6 0 11 -9 27 -20 37 -16 15 -26 17 -48 9 -22 -8 -28 -17
-33 -54 -6 -42 -6 -43 -8 -10 -1 30 -31 90 -31 64 0 -5 -5 -2 -10 6 -7 11 -10
5 -10 -25 -1 -33 -2 -37 -11 -22 -6 10 -9 27 -6 38 3 12 -4 27 -19 41 -13 13
-24 29 -24 36 0 7 -5 10 -10 7 -5 -3 -10 1 -10 9 0 9 -8 16 -18 16 -9 0 -23 9
-30 21 -9 13 -19 18 -32 14 -10 -3 -21 -1 -24 4 -4 5 -28 13 -54 16 -26 3 -86
15 -135 26 -48 11 -96 17 -107 14 -12 -4 -20 -2 -20 5 0 6 -4 9 -8 6 -4 -2
-14 -1 -22 5 -10 6 5 9 47 9 34 0 64 4 67 9 3 5 -13 7 -37 5 -145 -12 -177
-16 -177 -23 0 -4 -10 -13 -22 -19 -19 -10 -9 -11 57 -10 92 1 185 -11 185
-23 0 -5 -14 -9 -31 -9 -26 0 -29 -3 -24 -20 4 -14 2 -20 -8 -20 -9 0 -17 5
-19 12 -4 10 -108 30 -108 20 0 -6 44 -41 51 -42 14 0 71 -61 65 -67 -9 -9
-96 38 -103 55 -3 6 -11 12 -19 12 -8 0 -14 4 -14 8 0 20 -60 42 -105 38 -39
-4 -45 -3 -35 9 16 20 4 35 -29 35 -16 0 -34 6 -40 14 -12 14 -7 14 72 0 23
-4 37 -3 37 4 0 15 -35 21 -152 29 -89 5 -109 3 -122 -10 -9 -8 -16 -19 -16
-24 0 -21 -64 -63 -96 -63 -28 0 -36 -5 -44 -25 -11 -29 -25 -32 -34 -9 -4 9
-9 14 -13 11 -3 -4 -12 -2 -19 4 -9 7 -18 5 -32 -9 -11 -11 -29 -23 -41 -27
-17 -5 -21 -2 -22 17 -1 17 -3 18 -6 6 -5 -21 -23 -24 -23 -5 0 7 7 22 15 33
19 25 19 44 0 44 -17 0 -35 -30 -35 -58 0 -11 -6 -25 -14 -31 -11 -9 -15 -6
-20 14 -8 32 38 102 86 134 18 11 62 43 98 71 36 27 71 50 78 50 19 0 104 45
129 69 15 14 39 21 85 25 34 3 78 12 97 22 27 13 49 15 109 10 70 -6 79 -4
112 19 25 17 52 26 86 27 27 1 54 8 59 14 7 9 22 10 50 4 22 -4 32 -8 23 -9
-10 0 -18 -4 -18 -7 0 -9 28 -34 38 -34 5 0 27 -13 48 -28 63 -45 111 -70 154
-82 23 -6 47 -13 55 -16 8 -4 15 3 17 17 2 16 13 26 34 32 45 13 58 46 44 113
-6 29 -16 57 -23 62 -7 5 -34 12 -62 14 -69 7 -175 69 -175 103 0 13 -4 26 -9
30 -6 3 -13 27 -16 53 -4 26 -11 61 -16 77 -13 40 -36 364 -38 545 -1 80 -4
153 -7 163 -5 15 -24 17 -225 17 l-219 0 5 -107 c15 -303 25 -699 19 -731 -9
-53 -28 -79 -69 -92 -46 -15 -92 -6 -136 26 -40 30 -94 54 -121 54 -28 0 -208
61 -208 70 0 5 -14 11 -31 15 -27 6 -107 42 -173 77 -11 6 -47 13 -80 16 -40
3 -74 14 -100 30 -21 13 -66 33 -100 44 -33 11 -65 23 -71 28 -5 4 -25 10 -42
13 -55 11 -219 96 -250 130 -47 52 -53 79 -55 260 l-2 167 -222 0 -221 0 -7
-46 c-3 -26 -6 -64 -6 -85 0 -42 -29 -73 -79 -84 -41 -9 -171 29 -326 96 -49
22 -94 39 -98 39 -4 0 -27 9 -51 19 -23 11 -63 25 -89 32 -26 6 -50 15 -53 20
-3 5 -63 9 -135 9 l-129 0 0 -750z m4000 -679 c0 -5 -5 -11 -11 -13 -6 -2 -2
-20 12 -46 20 -36 21 -45 9 -52 -8 -5 -18 -6 -23 -3 -5 3 -3 9 3 13 10 6 5 15
-16 35 -16 15 -35 30 -43 35 -13 7 -13 11 -2 24 14 17 71 22 71 7z m-205 -21
c3 -5 -1 -10 -10 -10 -9 0 -13 5 -10 10 3 6 8 10 10 10 2 0 7 -4 10 -10z m293
-45 c-3 -3 -9 2 -12 12 -6 14 -5 15 5 6 7 -7 10 -15 7 -18z m-1528 5 c0 -5 -3
-10 -7 -10 -5 0 -18 -3 -30 -6 -17 -5 -23 -2 -23 10 0 11 9 16 30 16 17 0 30
-4 30 -10z m640 -10 c0 -5 -2 -10 -4 -10 -3 0 -8 5 -11 10 -3 6 -1 10 4 10 6
0 11 -4 11 -10z m-335 -20 c6 -9 -16 -40 -28 -40 -3 0 -4 11 -3 25 1 25 19 34
31 15z m-134 -39 c-9 -6 -9 -15 -1 -35 5 -15 13 -70 16 -122 5 -77 3 -99 -10
-119 -11 -16 -16 -47 -16 -89 0 -36 -4 -68 -10 -71 -5 -3 -10 -11 -10 -17 0
-7 6 -6 15 2 12 10 15 9 15 -6 0 -10 30 -47 66 -81 61 -58 67 -66 70 -111 5
-67 -8 -82 -80 -87 -33 -3 -62 -9 -65 -13 -6 -8 -143 3 -401 32 -69 7 -120 14
-113 15 8 1 10 26 8 82 -2 55 2 84 10 93 8 7 17 35 20 62 10 68 28 99 70 118
38 18 47 31 15 23 -11 -3 -23 -1 -26 4 -3 5 0 9 5 9 6 0 11 6 11 14 0 7 11 25
25 40 14 15 25 31 25 35 0 4 8 15 18 25 18 15 20 15 37 -4 16 -18 16 -22 3
-51 -16 -31 -13 -73 3 -63 5 3 9 10 9 16 0 12 39 48 51 48 5 0 11 11 15 25 3
14 10 25 15 25 5 0 7 10 4 23 -7 27 51 161 65 152 6 -3 10 -27 11 -53 0 -26 3
-41 6 -34 2 6 9 12 15 12 5 0 16 7 24 15 21 21 34 19 34 -5 0 -11 6 -20 13
-20 10 0 12 15 9 60 -2 33 -2 67 2 75 5 15 7 15 23 0 12 -13 13 -19 4 -24z
m1353 14 c11 -8 28 -15 38 -15 10 0 23 -10 28 -22 5 -14 9 -17 10 -8 0 11 3
11 11 -4 18 -30 -9 -37 -38 -10 -14 13 -32 24 -39 24 -8 0 -14 5 -14 10 0 6
-6 10 -14 10 -7 0 -19 7 -26 15 -10 12 -9 15 6 15 11 0 28 -7 38 -15z m-1264
-1 c0 -3 -7 -12 -15 -20 -12 -13 -15 -13 -15 -1 0 7 3 17 7 20 8 8 23 9 23 1z
m-600 -28 c0 -8 -11 -21 -24 -30 -14 -8 -33 -29 -42 -46 -21 -35 -34 -39 -34
-10 0 11 9 25 20 32 11 7 20 20 20 29 0 18 40 50 53 42 4 -2 7 -10 7 -17z m37
2 c-3 -8 -6 -5 -6 6 -1 11 2 17 5 13 3 -3 4 -12 1 -19z m253 2 c0 -11 -4 -20
-10 -20 -5 0 -10 9 -10 20 0 11 5 20 10 20 6 0 10 -9 10 -20z m121 -36 c-9
-28 -9 -29 -10 -3 -1 14 2 29 6 32 11 12 13 2 4 -29z m886 -6 c-3 -7 -5 -2 -5
12 0 14 2 19 5 13 2 -7 2 -19 0 -25z m-648 13 c9 -6 11 -18 6 -40 -4 -20 -3
-31 4 -31 6 0 11 11 11 26 0 24 2 25 52 22 46 -3 53 -6 58 -28 3 -14 14 -27
24 -28 14 -3 17 0 13 12 -4 9 -1 16 4 16 6 0 9 -9 6 -20 -4 -15 2 -24 24 -35
29 -16 30 -22 3 -73 -6 -12 -26 -33 -45 -46 -19 -12 -33 -28 -32 -34 4 -19
-29 -36 -73 -37 -24 0 -46 5 -48 10 -3 6 -5 2 -5 -7 -1 -15 8 -18 46 -18 34 0
44 -3 36 -11 -14 -14 -80 -31 -118 -29 l-29 1 24 -26 c13 -14 30 -25 38 -25
11 0 13 -9 9 -40 -3 -25 -1 -41 7 -43 6 -2 7 -8 3 -13 -13 -14 -79 28 -99 62
-13 23 -19 54 -19 110 -1 102 -1 101 14 107 25 10 39 -7 28 -35 -8 -22 -7 -27
10 -31 11 -3 16 -1 13 4 -3 6 -3 17 0 25 4 12 11 11 38 -6 39 -23 74 -26 94
-6 12 12 7 15 -36 21 -28 4 -50 11 -50 16 0 5 -6 9 -14 9 -10 0 -12 8 -6 33 4
20 2 42 -7 60 -20 39 -25 33 -17 -22 4 -31 2 -51 -5 -55 -7 -5 -11 4 -11 24 0
20 -4 29 -11 24 -8 -5 -8 -1 0 14 6 11 11 32 11 47 0 14 7 39 15 56 9 16 13
34 10 39 -8 12 5 13 24 1z m-499 -11 c0 -5 -4 -10 -10 -10 -5 0 -10 5 -10 10
0 6 5 10 10 10 6 0 10 -4 10 -10z m1365 -10 c3 -5 1 -10 -4 -10 -6 0 -11 5
-11 10 0 6 2 10 4 10 3 0 8 -4 11 -10z m184 -9 c7 -5 12 -13 10 -18 -2 -6 -13
-2 -23 8 -20 19 -12 26 13 10z m-439 -11 c0 -5 -2 -10 -4 -10 -3 0 -8 5 -11
10 -3 6 -1 10 4 10 6 0 11 -4 11 -10z m415 -70 c2 -23 -1 -30 -13 -28 -8 2
-16 13 -17 26 -1 12 -10 28 -20 36 -12 9 -16 19 -11 31 6 17 9 17 33 -7 15
-15 27 -40 28 -58z m169 74 c23 -9 20 -24 -4 -24 -11 0 -20 7 -20 15 0 17 2
18 24 9z m-291 -36 c6 -22 5 -22 -8 -4 -17 22 -20 40 -6 32 5 -3 11 -16 14
-28z m-1537 -3 c-6 -22 -3 -25 19 -25 15 0 25 6 25 15 0 20 27 8 33 -15 3 -12
-14 -38 -54 -80 -48 -49 -64 -61 -86 -58 -43 5 -49 28 -17 76 25 39 29 41 45
26 12 -11 19 -12 24 -4 4 6 0 17 -8 23 -8 7 -18 23 -21 37 -3 14 -3 19 0 13 8
-18 34 -16 34 2 0 8 3 15 6 15 3 0 3 -11 0 -25z m-154 -75 c-3 -24 -9 -30 -28
-30 -28 0 -30 7 -8 38 22 32 41 28 36 -8z m48 -111 c9 -16 7 -21 -17 -30 -22
-8 -30 -7 -39 5 -6 9 -16 16 -23 16 -17 0 -13 20 4 21 28 3 33 4 41 11 9 10
21 2 34 -23z m930 -8 c-14 -27 -30 -36 -30 -17 0 8 8 20 18 25 23 14 24 14 12
-8z m-310 -23 c0 -16 -3 -19 -11 -11 -6 6 -8 16 -5 22 11 17 16 13 16 -11z
m-993 -82 c104 -29 178 -63 208 -96 27 -30 44 -101 45 -187 0 -42 4 -73 10
-73 6 0 10 18 10 40 0 22 4 40 8 40 9 0 8 -78 -2 -87 -3 -4 -6 -14 -6 -24 0
-10 -6 -24 -14 -31 -8 -8 -15 -23 -17 -33 -2 -10 -10 -20 -16 -22 -9 -3 -8 3
2 24 8 15 15 34 15 41 0 6 5 12 11 12 5 0 7 5 3 11 -4 8 -10 5 -17 -7 -5 -11
-17 -26 -26 -35 -37 -36 -68 -83 -118 -179 -10 -19 -25 -41 -33 -50 -8 -9 -28
-33 -45 -54 -16 -22 -54 -68 -84 -103 -48 -57 -57 -63 -91 -63 -70 0 -81 19
-91 160 -15 209 -27 619 -19 661 4 22 18 51 30 64 37 39 69 38 237 -9z m320
-6 c-12 -10 -24 -14 -25 -9 -6 15 18 38 34 32 10 -4 9 -9 -9 -23z m823 10 c0
-5 -4 -10 -10 -10 -5 0 -10 5 -10 10 0 6 5 10 10 10 6 0 10 -4 10 -10z m-790
-79 c0 -6 -4 -13 -10 -16 -5 -3 -10 1 -10 9 0 9 5 16 10 16 6 0 10 -4 10 -9z
m47 -68 c-3 -10 -5 -4 -5 12 0 17 2 24 5 18 2 -7 2 -21 0 -30z m-77 -3 c0 -5
-5 -10 -11 -10 -5 0 -7 5 -4 10 3 6 8 10 11 10 2 0 4 -4 4 -10z m-13 -45 c12
-27 4 -39 -21 -29 -17 7 -22 24 -6 24 5 0 7 7 4 15 -10 25 10 16 23 -10z m1
-63 c2 -7 -3 -12 -12 -12 -9 0 -16 7 -16 16 0 17 22 14 28 -4z m78 -135 c-2
-52 -7 -69 -30 -100 -16 -20 -30 -37 -32 -37 -2 0 -4 28 -4 63 0 55 4 67 31
100 17 20 32 37 34 37 1 0 2 -28 1 -63z m139 13 c4 -7 -6 -9 -29 -7 -49 5 -58
17 -13 17 20 0 39 -5 42 -10z m-334 -147 c-4 -10 -16 -37 -26 -60 -10 -24 -22
-43 -26 -43 -4 0 -1 12 7 28 7 15 14 32 14 37 0 11 28 55 35 55 3 0 1 -8 -4
-17z m19 -52 c0 -6 -4 -13 -10 -16 -5 -3 -10 1 -10 9 0 9 5 16 10 16 6 0 10
-4 10 -9z m2114 -6 c4 -13 2 -14 -14 -5 -23 13 -26 20 -6 20 8 0 16 -7 20 -15z
m-124 -15 c11 -7 7 -10 -18 -10 -20 0 -31 4 -27 10 8 13 26 13 45 0z m173 -40
c10 -16 14 -30 8 -30 -5 0 -16 14 -25 30 -8 17 -11 30 -7 30 4 0 15 -13 24
-30z m-2040 -60 c-5 -19 -23 -39 -23 -25 0 9 20 45 24 45 2 0 2 -9 -1 -20z
m991 -4 c3 -12 6 -65 6 -117 0 -52 1 -101 2 -109 2 -9 -11 -33 -29 -55 -18
-22 -40 -50 -50 -63 -12 -15 -33 -24 -63 -28 -39 -5 -96 -26 -152 -56 -16 -7
-18 -4 -18 26 0 24 9 43 30 66 17 18 30 35 30 39 0 4 11 13 25 19 14 6 25 20
25 29 1 21 23 53 36 53 5 0 15 10 23 21 11 18 11 23 -1 30 -10 7 -10 9 0 9 6
0 11 3 11 8 -5 27 2 44 17 38 8 -3 13 -2 10 3 -3 4 4 25 15 47 34 65 72 83 83
40z m-204 -258 c0 -13 -23 -5 -28 10 -2 7 2 10 12 6 9 -3 16 -11 16 -16z m655
-138 c3 -5 1 -10 -4 -10 -6 0 -11 5 -11 10 0 6 2 10 4 10 3 0 8 -4 11 -10z
m-651 -219 c30 -25 16 -31 -64 -31 -80 0 -97 9 -69 37 15 15 113 10 133 -6z
m-81 -143 c4 -10 7 -10 18 0 15 14 63 17 54 3 -10 -17 15 -22 36 -7 24 16 63
5 73 -20 9 -23 -5 -78 -15 -62 -7 10 -9 10 -9 1 0 -7 -7 -13 -15 -13 -8 0 -15
-4 -15 -10 0 -5 7 -10 15 -10 8 0 15 -4 15 -9 0 -5 -27 -11 -60 -13 -64 -5
-67 -7 -115 -80 -32 -48 -31 -54 5 -61 17 -4 30 -13 30 -21 0 -19 34 -29 93
-27 26 1 47 -3 47 -9 0 -5 16 -10 36 -10 34 0 64 -18 64 -38 0 -5 10 -12 22
-15 18 -5 19 -8 8 -21 -7 -9 -21 -16 -31 -16 -11 0 -19 -4 -19 -9 0 -13 -38
-21 -42 -9 -4 12 -143 -19 -167 -36 -7 -6 -27 -16 -45 -22 -17 -7 -52 -20 -78
-30 -42 -16 -51 -17 -80 -5 -18 8 -50 16 -70 18 -20 3 -44 14 -54 24 -9 10
-23 19 -31 19 -7 0 -13 8 -13 18 0 10 -7 27 -15 38 -8 10 -15 35 -15 55 0 19
-5 40 -12 47 -9 9 -7 13 6 18 10 4 22 17 27 31 5 13 20 28 34 33 15 6 25 17
25 29 0 10 7 21 15 25 8 3 15 15 15 26 0 14 10 24 30 31 19 7 30 18 30 29 0
41 9 49 43 38 18 -6 62 -12 100 -13 67 -2 67 -2 67 25 0 17 -5 27 -15 27 -8 0
-15 -4 -15 -9 0 -4 -4 -8 -10 -8 -5 0 -10 14 -10 30 0 23 5 30 19 30 11 0 21
-6 24 -12z m284 -40 c16 -12 12 -48 -5 -48 -7 0 -10 5 -7 10 3 6 -1 10 -9 10
-9 0 -15 -5 -13 -11 4 -19 -20 -21 -37 -4 -14 15 -14 18 0 40 15 23 43 24 71
3z m-1377 -97 c27 -27 50 -53 50 -59 0 -5 25 -32 55 -59 54 -50 62 -68 46
-107 -6 -17 -17 -19 -106 -17 -87 2 -102 5 -120 24 -66 67 -73 226 -12 255 33
16 33 16 87 -37z m2104 -335 c-6 -16 -24 -23 -24 -8 0 10 22 33 27 28 2 -2 1
-11 -3 -20z m4 -496 l0 -25 -8 25 c-4 14 -8 34 -8 45 l-1 20 9 -20 c5 -11 8
-31 8 -45z m-2096 -1 c-3 -38 0 -34 -34 -43 -26 -6 -28 -4 -28 23 0 20 8 35
22 45 31 22 43 15 40 -25z m-1642 -49 c0 -5 -5 -10 -11 -10 -5 0 -7 5 -4 10 3
6 8 10 11 10 2 0 4 -4 4 -10z m1161 -580 c31 -9 36 -14 37 -40 1 -27 -3 -30
-29 -30 -16 0 -48 -5 -71 -11 -55 -14 -93 -1 -100 35 -4 22 -2 26 19 26 13 0
22 4 18 9 -3 6 12 12 32 14 21 2 43 4 48 5 6 1 26 -3 46 -8z"/>
<path d="M2700 4330 c0 -5 5 -10 10 -10 6 0 10 5 10 10 0 6 -4 10 -10 10 -5 0
-10 -4 -10 -10z"/>
<path d="M2530 4300 c0 -5 5 -10 10 -10 6 0 10 5 10 10 0 6 -4 10 -10 10 -5 0
-10 -4 -10 -10z"/>
<path d="M2851 4402 c-7 -13 -11 -28 -8 -35 2 -7 9 -2 16 11 7 13 11 28 8 35
-2 7 -9 2 -16 -11z"/>
<path d="M2780 4090 c0 -5 5 -10 10 -10 6 0 10 5 10 10 0 6 -4 10 -10 10 -5 0
-10 -4 -10 -10z"/>
<path d="M3110 4940 c-8 -5 -11 -13 -6 -17 5 -4 11 -3 13 3 4 13 43 7 43 -7 0
-21 -37 -27 -212 -33 -64 -3 -125 -9 -135 -14 -10 -5 -35 -12 -56 -16 -34 -6
-36 -8 -22 -23 14 -14 14 -16 -2 -28 -14 -11 -8 -11 36 -2 41 8 55 7 61 -3 5
-9 24 -11 59 -8 38 4 54 1 63 -10 11 -12 10 -16 0 -20 -10 -3 -10 -7 -1 -18 6
-8 15 -11 20 -9 4 3 25 -1 45 -10 41 -17 94 -20 94 -6 0 6 20 13 45 17 28 4
45 11 45 20 0 16 -12 18 -25 5 -6 -6 -15 -4 -22 4 -10 11 -9 15 7 20 33 11 24
35 -12 34 -18 0 -28 -3 -21 -6 19 -7 -17 -39 -52 -46 -17 -3 -37 -2 -45 4 -11
6 -9 9 11 9 29 0 55 23 44 40 -3 5 -3 11 2 11 42 7 64 9 98 10 22 0 45 5 52
10 7 6 17 8 22 4 6 -3 20 -1 32 5 l21 12 -21 19 c-23 22 -52 24 -84 8 -12 -7
-19 -8 -15 -4 9 10 -32 55 -51 55 -9 0 -23 -4 -31 -10z m-60 -74 c0 -11 -19
-15 -25 -6 -3 5 1 10 9 10 9 0 16 -2 16 -4z m10 -30 c0 -3 -4 -8 -10 -11 -5
-3 -10 -1 -10 4 0 6 5 11 10 11 6 0 10 -2 10 -4z"/>
<path d="M3210 4811 c0 -5 4 -12 10 -16 5 -3 6 -13 3 -23 -5 -13 -3 -14 6 -6
15 14 11 46 -6 52 -7 2 -13 -1 -13 -7z"/>
<path d="M3400 4792 c0 -11 -10 -24 -22 -30 -22 -10 -21 -11 9 -11 26 -1 46
-15 107 -76 41 -41 82 -75 91 -75 19 0 19 14 0 30 -8 7 -12 17 -8 22 3 6 0 8
-8 6 -8 -3 -22 4 -31 15 -24 27 -23 34 2 12 25 -22 26 -7 3 40 -16 33 -63 65
-94 65 -14 0 -11 -28 4 -33 9 -4 9 -6 -1 -6 -7 -1 -18 13 -23 29 -12 33 -29
40 -29 12z"/>
<path d="M2798 4783 c7 -3 16 -2 19 1 4 3 -2 6 -13 5 -11 0 -14 -3 -6 -6z"/>
<path d="M3255 4780 c-3 -5 -1 -10 4 -10 6 0 11 5 11 10 0 6 -2 10 -4 10 -3 0
-8 -4 -11 -10z"/>
<path d="M3630 4738 c0 -16 6 -31 15 -34 8 -4 15 -14 15 -24 0 -11 5 -22 10
-25 6 -3 10 1 10 9 0 9 2 16 5 16 14 0 64 -31 68 -42 3 -7 6 -3 6 9 1 15 -8
24 -29 32 -35 12 -42 36 -7 27 12 -3 30 -6 40 -6 9 0 17 -7 17 -15 0 -8 7 -15
15 -15 21 0 19 26 -2 34 -24 9 -59 30 -80 48 -10 8 -33 15 -50 15 -30 0 -33
-3 -33 -29z"/>
<path d="M3570 4747 c8 -7 21 -19 28 -27 11 -13 11 -10 1 13 -7 15 -19 27 -28
27 -14 -1 -14 -2 -1 -13z"/>
<path d="M2584 4705 c-5 -11 -18 -31 -31 -45 -25 -26 -28 -70 -5 -78 8 -2 12
7 12 27 0 17 5 31 10 31 6 0 10 7 10 16 0 9 7 22 15 28 10 7 12 16 5 26 -7 12
-10 11 -16 -5z"/>
<path d="M2810 4701 l-55 -6 62 -13 c45 -9 68 -10 82 -2 11 5 29 10 40 10 12
0 21 5 21 10 0 10 -57 11 -150 1z"/>
<path d="M3018 4693 c7 -3 16 -2 19 1 4 3 -2 6 -13 5 -11 0 -14 -3 -6 -6z"/>
<path d="M3263 4674 c-13 -28 -8 -34 31 -34 21 0 27 3 18 9 -11 7 -10 10 3 15
9 3 26 6 37 6 33 0 16 9 -33 18 -41 8 -46 7 -56 -14z"/>
<path d="M2728 4683 c7 -3 16 -2 19 1 4 3 -2 6 -13 5 -11 0 -14 -3 -6 -6z"/>
<path d="M3460 4631 c0 -12 39 -25 48 -16 7 7 -17 25 -35 25 -7 0 -13 -4 -13
-9z"/>
<path d="M3665 4630 c-3 -5 -1 -10 4 -10 6 0 11 5 11 10 0 6 -2 10 -4 10 -3 0
-8 -4 -11 -10z"/>
<path d="M3620 4590 c19 -13 30 -13 30 0 0 6 -10 10 -22 10 -19 0 -20 -2 -8
-10z"/>
<path d="M2090 2691 c0 -4 -21 -14 -46 -21 -25 -7 -48 -20 -51 -28 -13 -32 63
-44 97 -15 20 18 28 73 10 73 -5 0 -10 -4 -10 -9z"/>
<path d="M5939 2600 c-15 -4 -87 -8 -161 -8 -153 0 -184 -9 -246 -69 -87 -83
-196 -146 -277 -160 -16 -3 -31 -9 -33 -14 -2 -5 -15 -9 -29 -9 -60 0 -156
-43 -204 -91 -11 -11 -30 -24 -42 -29 -23 -10 -58 -31 -67 -40 -3 -3 -22 -20
-43 -38 -21 -17 -34 -32 -28 -32 5 0 -3 -14 -18 -31 -31 -36 -169 -177 -197
-200 -17 -15 -80 -82 -146 -154 -33 -37 -55 -55 -65 -55 -11 0 -63 -66 -63
-79 0 -6 -4 -11 -10 -11 -5 0 -13 -18 -16 -40 -4 -22 -11 -43 -15 -46 -5 -3
-9 -14 -9 -24 0 -10 -13 -29 -29 -42 -16 -13 -34 -33 -40 -45 -6 -13 -18 -23
-25 -23 -8 0 -17 -7 -20 -16 -9 -24 -7 -54 4 -54 5 0 7 -6 5 -12 -6 -17 41
-50 71 -50 13 0 24 -4 24 -9 0 -5 6 -9 13 -9 7 0 18 -5 25 -12 7 -7 45 -24 85
-39 133 -49 406 -166 417 -179 3 -3 31 -14 62 -24 32 -10 68 -26 80 -36 39
-30 189 -110 208 -110 10 0 78 -30 151 -66 74 -36 155 -74 180 -84 72 -29 149
-83 204 -142 28 -30 69 -76 93 -101 23 -26 42 -52 42 -57 0 -6 31 -41 69 -78
62 -61 70 -73 76 -117 4 -28 15 -68 23 -90 43 -109 42 -137 42 1234 l0 1301
-32 -1 c-18 0 -45 -4 -59 -9z"/>
<path d="M2108 2548 c-7 -16 7 -46 17 -37 3 4 2 16 -3 29 -7 18 -10 20 -14 8z"/>
<path d="M2391 1984 c0 -11 3 -14 6 -6 3 7 2 16 -1 19 -3 4 -6 -2 -5 -13z"/>
<path d="M3890 1209 c0 -5 5 -7 10 -4 6 3 10 8 10 11 0 2 -4 4 -10 4 -5 0 -10
-5 -10 -11z"/>
<path d="M3996 1108 c-7 -35 -69 -163 -92 -189 -8 -8 -14 -21 -14 -27 0 -6
-12 -39 -27 -72 -27 -57 -29 -60 -65 -60 -21 0 -38 5 -38 10 0 6 -5 10 -10 10
-12 0 -2 -82 11 -90 11 -7 -4 -73 -18 -77 -7 -3 -8 7 -4 29 8 38 -10 76 -58
122 -36 34 -107 48 -117 22 -3 -9 -46 -37 -96 -62 -83 -44 -168 -114 -168
-141 0 -6 -4 -13 -9 -15 -6 -1 -22 -48 -36 -102 -21 -80 -24 -101 -13 -107 7
-5 16 -9 21 -9 4 0 7 -9 7 -20 0 -11 8 -23 18 -27 26 -9 52 -40 52 -61 0 -14
-9 -21 -30 -26 -31 -6 -34 -10 -44 -57 -6 -26 -68 -95 -122 -136 l-29 -22 293
0 293 -1 -11 21 c-9 17 -8 23 7 35 10 8 28 17 41 20 12 3 22 12 22 20 0 8 6
14 14 14 20 0 47 47 44 76 -3 24 2 28 45 41 l48 14 -5 41 c-6 45 6 68 34 68
23 0 36 61 20 91 -9 16 -8 24 5 39 9 10 14 23 11 29 -4 5 -2 12 4 16 5 3 10
18 10 33 0 15 6 39 14 53 7 14 16 38 20 54 4 16 22 50 40 75 48 67 79 126 73
141 -3 9 -8 5 -15 -12 -12 -31 -28 -38 -62 -29 -28 7 -41 40 -16 40 9 0 16 7
16 16 0 13 -7 15 -32 10 l-33 -6 25 15 c14 8 33 14 43 15 24 0 21 29 -5 57
l-22 23 -24 -22 -24 -23 8 30 c4 17 9 35 13 40 3 6 7 21 8 35 1 14 4 34 5 44
5 33 -19 28 -26 -6z m84 -292 c0 -19 -21 -26 -42 -14 -28 14 -21 28 12 28 19
0 30 -5 30 -14z m-43 -51 c3 -9 3 -18 1 -21 -9 -9 -38 8 -38 22 0 19 29 18 37
-1z m-257 -25 c0 -5 -4 -10 -10 -10 -5 0 -10 5 -10 10 0 6 5 10 10 10 6 0 10
-4 10 -10z m223 -25 c-6 -17 -25 -15 -31 3 -2 7 5 12 17 12 14 0 19 -5 14 -15z
m-340 -396 c6 -9 7 -24 3 -34 -6 -17 -8 -17 -29 4 -30 27 -37 27 -37 -4 0 -16
6 -25 15 -25 8 0 15 -4 15 -10 0 -13 -11 -12 -32 4 -18 13 -25 66 -11 80 12
12 66 2 76 -15z m-288 -68 c3 -5 1 -12 -5 -16 -5 -3 -10 1 -10 9 0 18 6 21 15
7z m250 -51 c3 -5 -1 -10 -9 -10 -9 0 -16 5 -16 10 0 6 4 10 9 10 6 0 13 -4
16 -10z"/>
<path d="M4066 1051 c-4 -7 -5 -15 -2 -18 9 -9 19 4 14 18 -4 11 -6 11 -12 0z"/>
<path d="M4180 996 c0 -14 5 -28 10 -31 6 -4 8 -10 5 -15 -3 -5 0 -21 6 -37
10 -26 11 -26 21 -9 6 10 8 33 5 52 -3 18 -1 36 4 40 15 9 0 24 -27 24 -19 0
-24 -5 -24 -24z"/>
<path d="M4322 968 c2 -7 35 -30 74 -50 38 -20 82 -47 98 -60 36 -29 106 -67
126 -68 8 0 28 -7 44 -15 30 -16 152 -19 196 -5 17 5 -2 8 -61 9 -121 1 -254
49 -327 119 -7 6 -20 12 -27 12 -7 0 -26 10 -42 23 -30 24 -69 47 -79 47 -3 0
-4 -6 -2 -12z"/>
<path d="M3822 841 c-7 -4 -25 -6 -40 -5 -22 3 -21 2 6 -6 17 -6 32 -17 32
-25 0 -20 16 -19 24 1 14 37 5 52 -22 35z"/>
<path d="M5108 683 c7 -3 16 -2 19 1 4 3 -2 6 -13 5 -11 0 -14 -3 -6 -6z"/>
<path d="M4097 604 c-3 -3 -3 -12 -1 -19 3 -7 1 -16 -5 -20 -6 -3 -11 -22 -11
-42 0 -22 -7 -41 -17 -49 -17 -12 -17 -14 2 -28 33 -26 45 -19 45 24 0 24 -5
40 -12 40 -6 0 -2 10 9 23 28 29 18 99 -10 71z"/>
<path d="M4080 402 c0 -12 -4 -22 -9 -22 -5 0 -11 -7 -15 -15 -10 -27 19 -16
32 12 8 18 9 30 2 37 -7 7 -10 3 -10 -12z"/>
<path d="M5402 188 c-7 -7 -12 -47 -12 -100 l0 -88 45 0 c34 0 47 5 55 19 8
16 6 23 -12 36 -23 16 -23 16 -4 31 16 11 17 17 8 26 -7 7 -12 19 -12 28 0 14
-19 36 -46 53 -6 3 -16 1 -22 -5z"/>
</g>
</svg>
